<?xml version="1.0" encoding="UTF-8"?>
<svg id="Layer_2" data-name="Layer 2" xmlns="http://www.w3.org/2000/svg" viewBox="0 0 60 60">
  <defs>
    <style>
      .cls-1 {
        fill: #000;
        stroke-width: 0px;
      }
    </style>
  </defs>
  <g id="Layer_1-2" data-name="Layer 1">
    <g>
      <path class="cls-1" d="M59.72,59.24c-.88-1.33-1.79-2.65-2.68-3.98-1.6-2.39-3.23-4.76-4.77-7.19-.35-.55-.7-1.11-1.05-1.67-1.53-2.44-3.04-4.9-4.5-7.4-1.74-2.99-3.4-6.04-5.03-9.09-1.37-2.57-2.7-5.17-3.94-7.8-.7-1.48-1.37-2.98-2-4.49-.35-.83-.7-1.67-1.05-2.51-.76-1.86-1.49-3.73-2.1-5.64-.74-2.32-1.33-4.68-1.98-7.03-.21-.73-.38-1.47-.63-2.45-.08.45-.16.66-.16.88.04,2.01.16,4.03.14,6.05-.04,3.22-.14,6.45-.27,9.67-.01.34-.03.69-.06,1.03-.06.77-.15,1.54-.3,2.29-.46,2.29-.9,4.58-1.56,6.82-.35,1.19-.76,2.37-1.21,3.53-.33.85-.68,1.69-1.05,2.51-1.15,2.55-2.75,4.87-4.59,6.99-2.34,2.71-4.64,5.47-7.18,7.99-3.03,3-6.3,5.78-9.46,8.65-.21.19-.37.42-.7.8.33-.07.45-.06.53-.11,2.14-1.23,4.22-2.6,6.45-3.66,2.7-1.29,5.47-2.49,8.33-3.39,2.47-.78,5.07-1.19,7.64-1.57,0,0,.02,0,.03,0,2.99-.43,6.01-.1,8.97.37.34.05.68.12,1.02.19,1.55.32,3.08.79,4.58,1.28,2.31.76,4.68,1.47,6.84,2.56,3.37,1.7,6.6,3.68,9.85,5.59.68.4,1.22,1.02,1.82,1.54h.35c-.09-.26-.13-.54-.28-.76ZM44.1,45.22c-2.4-1.15-5.98-6.31-8.32-10.38-1.39-2.43-2.59-4.87-3.36-6.87-.88-2.27-1.19-3.88-.95-4.8l.22-.83.24.82c2.21,7.44,6.29,14.54,12.45,21.69l.74.86-1.03-.49Z"/>
      <path class="cls-1" d="M28.4.28c.55,1.08.71,2.08.35,3.21-.33,1.03-.35,2.14-.6,3.19-.24,1.02-.6,2.02-.93,3.01-.49,1.48-1.01,2.94-1.52,4.41-.45,1.31-.88,2.63-1.35,3.94-.46,1.3-.93,2.61-1.44,3.9-.57,1.45-1.08,2.94-1.79,4.32-1.53,2.95-3.12,5.89-4.8,8.76-1.78,3.04-3.69,6-5.57,8.98-1.93,3.07-3.88,6.14-5.85,9.19-.79,1.22-1.65,2.41-2.51,3.58-.21.28-.56.46-.84.68-.48.38-.96.75-1.55,1.2.17-.43.28-.86.5-1.22,1.54-2.53,3.13-5.02,4.66-7.56,1.57-2.61,3.08-5.25,4.62-7.88,1.46-2.48,2.99-4.92,4.38-7.44,1.59-2.88,3.1-5.8,4.58-8.73,1.12-2.22,2.22-4.45,3.2-6.73,1.08-2.52,2.02-5.1,3-7.66.68-1.78,1.36-3.56,1.94-5.37.4-1.24.63-2.54.95-3.81.16-.63.35-1.24.56-1.99Z"/>
    </g>
  </g>
</svg>