<?xml version="1.0" encoding="UTF-8"?>
<svg id="Layer_2" data-name="Layer 2" xmlns="http://www.w3.org/2000/svg" viewBox="0 0 140 23">
  <defs>
    <style>
      .cls-1 {
        fill: #000;
        stroke-width: 0px;
      }
    </style>
  </defs>
  <g id="Layer_1-2" data-name="Layer 1">
    <g>
      <path class="cls-1" d="M126.73.85c1.81,0,3.62.04,5.43,0,3.3-.1,6.74,2.6,7.49,5.73.17.69.3,1.41.31,2.12.04,1.96.04,3.92,0,5.88-.05,3.08-1.64,5.2-4.17,6.7-1.45.86-3.03,1.11-4.67,1.11-2.93,0-5.87,0-8.8,0-1.97,0-3.84-.37-5.5-1.5-1.67-1.14-2.87-2.69-3.3-4.68-.67-3.11-.7-6.29.02-9.38.56-2.39,2.12-4.11,4.29-5.21,1.03-.52,2.11-.81,3.28-.78,1.87.04,3.74.01,5.61.01ZM126.62,3.25c-1.81,0-3.63.05-5.44-.01-3.07-.11-5.61,2.81-5.64,5.79-.02,1.7-.12,3.41.04,5.09.1,1.05.45,2.16.98,3.07,1.16,2,3.04,2.8,5.3,2.79,2.96-.02,5.93.02,8.89-.02.9-.01,1.8-.17,2.7-.29,1.98-.26,4.24-2.91,4.18-4.99-.06-1.93-.12-3.87.02-5.8.21-2.75-2.78-5.89-5.6-5.66-1.8.15-3.62.03-5.43.03Z"/>
      <path class="cls-1" d="M103.46,18.65c0-.34,0-.71,0-1.08,0-5.3,0-10.6,0-15.9,0-.34,0-.78.19-.99.28-.31.84-.71,1.11-.6.43.17.76.69,1.06,1.11.11.16.03.46.03.69,0,6.44,0,12.88,0,19.32,0,.65.03,1.3-.68,1.63-.76.36-1.3-.03-1.8-.56-2.68-2.79-5.35-5.58-8.05-8.35-2.23-2.29-4.48-4.55-6.72-6.83-.76-.77-1.52-1.56-2.29-2.32-.12-.12-.3-.19-.46-.28-.06.17-.18.33-.18.5,0,5.42,0,10.83.01,16.25,0,1.12-.33,1.63-1.06,1.71-.81.09-1.27-.29-1.3-1.11-.03-.82,0-1.64,0-2.46,0-5.88,0-11.77,0-17.65,0-.39,0-.87.21-1.17.47-.72,1.21-.73,1.83-.1,2.15,2.19,4.28,4.41,6.44,6.6,3.05,3.11,6.1,6.22,9.17,9.31.77.77,1.59,1.48,2.47,2.29Z"/>
      <path class="cls-1" d="M48.52,4.15c0,.57,0,.86,0,1.14,0,5.45,0,10.89,0,16.34,0,1.06-.63,1.63-1.5,1.25-.38-.17-.61-.74-.86-1.17-.09-.15-.02-.4-.02-.61,0-6.38,0-12.77.01-19.15,0-.44.1-.93.31-1.32.41-.75.98-.85,1.61-.26,2.27,2.12,4.52,4.27,6.77,6.41.73.7,1.46,1.39,2.23,2.13,2.52-2.44,4.98-4.84,7.45-7.24.45-.43.85-.93,1.35-1.29.31-.22.86-.4,1.13-.26.36.19.63.68.78,1.11.13.36.02.81.02,1.22,0,6.36,0,12.71,0,19.07,0,1.17-.74,1.73-1.69,1.3-.62-.28-.7-.82-.7-1.44.01-4.19,0-8.38,0-12.56,0-1.17,0-2.34,0-3.51,0-.27-.04-.54-.09-1.03-.67.64-1.18,1.12-1.69,1.6-1.97,1.85-3.95,3.68-5.89,5.57-.61.6-1.11.37-1.56-.06-2.2-2.12-4.37-4.28-6.57-6.41-.27-.26-.6-.46-1.09-.83Z"/>
      <path class="cls-1" d="M20.33,11.52c0-3.22,0-6.44,0-9.67,0-.23-.01-.47.01-.7.07-.67.45-1.12,1.1-1.11.64,0,1.03.43,1.03,1.13,0,.29,0,.59,0,.88,0,5.8,0,11.6,0,17.4,0,1.1.12,1.23,1.16,1.23,3.94,0,7.88,0,11.83,0,1.23,0,2.38-.22,2.85-1.59.16-.45.18-.97.18-1.45.01-5.3,0-10.6.01-15.91,0-.29-.07-.69.08-.84.36-.35.85-.83,1.27-.81.59.03,1.03.54,1.03,1.29-.01,5.68.05,11.37-.05,17.05-.04,2.27-1.67,4.52-4.32,4.53-5.01.03-10.01.02-15.02.01-.91,0-1.16-.31-1.16-1.34,0-3.37,0-6.74,0-10.11Z"/>
      <path class="cls-1" d="M2.39,10.63c0,3.01.03,6.03-.02,9.04-.01.8.29,1.02,1,1.01,2.76-.01,5.52-.03,8.28.02.52,0,1.15.19,1.52.53.65.58.31,1.5-.54,1.69-.28.06-.57.05-.86.05-3.39,0-6.79,0-10.18,0-1.2,0-1.59-.4-1.59-1.64C0,14.8,0,8.27.01,1.75c0-.32.11-.66.24-.96C.49.24.91-.15,1.53.07c.57.2.88.64.87,1.34-.03,3.07-.01,6.15-.01,9.22Z"/>
      <path class="cls-1" d="M74.15,11.49c0-3.31,0-6.61,0-9.92,0-.36.03-.8.23-1.06.55-.75,1.43-.64,1.84.22.18.38.27.84.27,1.26.02,6.38.01,12.76,0,19.14,0,.37-.09.75-.19,1.11-.18.67-.7.79-1.29.71-.63-.08-.86-.5-.86-1.1,0-1.73,0-3.45,0-5.18,0-1.73,0-3.45,0-5.18Z"/>
    </g>
  </g>
</svg>